<?xml version="1.0" standalone="no"?>
<!DOCTYPE svg PUBLIC "-//W3C//DTD SVG 20010904//EN"
 "http://www.w3.org/TR/2001/REC-SVG-20010904/DTD/svg10.dtd">
<svg version="1.0" xmlns="http://www.w3.org/2000/svg"
 width="512.000000pt" height="512.000000pt" viewBox="0 0 512.000000 512.000000"
 preserveAspectRatio="xMidYMid meet">
<metadata>
Created by potrace 1.11, written by Peter Selinger 2001-2013
</metadata>
<g transform="translate(0.000000,512.000000) scale(0.100000,-0.100000)"
fill="#000000" stroke="none">
<path d="M2175 3719 c-444 -60 -826 -334 -1020 -733 -374 -767 66 -1673 905
-1867 122 -29 365 -36 492 -15 536 88 965 498 1083 1036 25 114 30 354 11 472
-90 546 -501 976 -1046 1094 -89 19 -327 27 -425 13z m245 -317 c55 -41 70
-78 70 -173 l0 -89 38 0 c112 0 288 -91 347 -178 51 -75 24 -178 -58 -220 -60
-31 -111 -24 -170 25 -80 68 -100 73 -311 73 -175 0 -191 -2 -227 -22 -97 -54
-90 -191 13 -244 21 -11 76 -14 237 -14 177 0 219 -3 270 -19 211 -65 345
-278 310 -491 -33 -204 -185 -346 -401 -375 l-48 -6 0 -82 c0 -99 -19 -141
-76 -174 -50 -29 -90 -29 -144 0 -61 32 -80 73 -80 173 l0 81 -31 7 c-17 3
-46 6 -63 6 -45 1 -156 42 -210 79 -61 42 -79 79 -74 148 4 46 10 60 41 90 30
31 44 37 89 41 47 4 63 0 113 -27 l58 -31 211 0 c186 0 215 2 245 18 88 47 93
174 10 233 -33 23 -41 24 -274 29 l-240 5 -67 32 c-164 78 -260 226 -260 403
1 135 42 231 139 322 78 72 184 118 276 118 l37 0 0 85 c0 92 10 123 53 163
48 45 127 51 177 14z"/>
</g>
</svg>
